<svg xmlns="http://www.w3.org/2000/svg" xmlns:xlink="http://www.w3.org/1999/xlink" xmlns:lucid="lucid" width="1870.87" height="2581.67"><g transform="translate(0 0)" lucid:page-tab-id="0_0"><path d="M0 0h1870.87v2581.67H0z" fill="#21252c"/><path d="M520 26a6 6 0 0 1 6-6h811.73a6 6 0 0 1 6 6v94a6 6 0 0 1-6 6H526a6 6 0 0 1-6-6z" stroke="#000" stroke-opacity="0" stroke-width="3" fill="#fff" fill-opacity="0"/><use xlink:href="#a" transform="matrix(1,0,0,1,525,25) translate(17.648148148148323 35.66666666666666)"/><use xlink:href="#b" transform="matrix(1,0,0,1,525,25) translate(209.96296296296308 35.66666666666666)"/><use xlink:href="#c" transform="matrix(1,0,0,1,525,25) translate(408.7592592592593 35.66666666666666)"/><use xlink:href="#d" transform="matrix(1,0,0,1,525,25) translate(429.03703703703707 35.66666666666666)"/><use xlink:href="#e" transform="matrix(1,0,0,1,525,25) translate(544.2222222222222 35.66666666666666)"/><use xlink:href="#f" transform="matrix(1,0,0,1,525,25) translate(213.04012345679024 73.88888888888886)"/><use xlink:href="#g" transform="matrix(1,0,0,1,525,25) translate(382.58950617283955 73.88888888888886)"/><use xlink:href="#h" transform="matrix(1,0,0,1,525,25) translate(423.26234567901236 73.88888888888886)"/><path d="M791.57 160c17.67 0 32 17.9 32 40s-14.33 40-32 40h-96c-17.67 0-32-17.9-32-40s14.33-40 32-40z" stroke="#a9a9a9" stroke-width="2" fill="#f5fbff"/><use xlink:href="#i" transform="matrix(1,0,0,1,668.569185832007,165) translate(54.575 38.4625)"/><path d="M663.57 782.6a6.65 6.65 0 0 1 5.97-6.62l148.06-15.36a5.4 5.4 0 0 1 5.97 5.38v88a6 6 0 0 1-6 6h-148a6 6 0 0 1-6-6z" stroke="#a9a9a9" stroke-width="2" fill="#f5fbff"/><use xlink:href="#j" transform="matrix(1,0,0,1,668.569185832007,781.6666666666666) translate(67.025 39.8375)"/><path d="M691.82 644.7a12.48 12.48 0 0 1 9.75-4.7h106c8.84 0 16 17.9 16 40s-7.16 40-16 40h-106a12.48 12.48 0 0 1-9.75-4.7l-24.5-30.6a7.5 7.5 0 0 1 0-9.4z" stroke="#a9a9a9" stroke-width="2" fill="#f5fbff"/><use xlink:href="#k" transform="matrix(1,0,0,1,668.569185832007,645) translate(19.104999999999997 38.4625)"/><use xlink:href="#l" transform="matrix(1,0,0,1,668.569185832007,645) translate(69.955 38.4625)"/><use xlink:href="#m" transform="matrix(1,0,0,1,668.569185832007,645) translate(103.955 38.4625)"/><path d="M743.98 722.5v24.17" stroke="#bdf139" stroke-width="3" fill="none"/><path d="M745.48 722.54h-3V721h3z" stroke="#bdf139" stroke-width=".05" fill="#bdf139"/><path d="M743.98 762.43l-4.63-14.26h9.27z" stroke="#bdf139" stroke-width="3" fill="#bdf139"/><path d="M738.76 903.58a8.06 8.06 0 0 1 9.62 0l84.44 62.84a4.46 4.46 0 0 1 0 7.16l-84.44 62.84a8.06 8.06 0 0 1-9.62 0l-84.45-62.84a4.46 4.46 0 0 1 0-7.16z" stroke="#a9a9a9" stroke-width="2" fill="#f5fbff"/><use xlink:href="#n" transform="matrix(1,0,0,1,654.5011283490745,905) translate(52.655 59.0875)"/><use xlink:href="#o" transform="matrix(1,0,0,1,654.5011283490745,905) translate(76.655 59.0875)"/><use xlink:href="#p" transform="matrix(1,0,0,1,654.5011283490745,905) translate(104.405 59.0875)"/><use xlink:href="#q" transform="matrix(1,0,0,1,654.5011283490745,905) translate(34.05499999999999 80.6875)"/><use xlink:href="#r" transform="matrix(1,0,0,1,654.5011283490745,905) translate(108.955 80.6875)"/><use xlink:href="#s" transform="matrix(1,0,0,1,654.5011283490745,905) translate(133.95499999999998 80.6875)"/><path d="M743.57 862.46v17.9" stroke="#bdf139" stroke-width="3" fill="none"/><path d="M745.07 862.5h-3v-1.54h3z" stroke="#bdf139" stroke-width=".05" fill="#bdf139"/><path d="M743.57 896.13l-4.64-14.27h9.27z" stroke="#bdf139" stroke-width="3" fill="#bdf139"/><path d="M738.77 423.6a8 8 0 0 1 9.6 0l70.4 52.8a4.5 4.5 0 0 1 0 7.2l-70.4 52.8a8 8 0 0 1-9.6 0l-70.4-52.8a4.5 4.5 0 0 1 0-7.2z" stroke="#a9a9a9" stroke-width="2" fill="#f5fbff"/><use xlink:href="#t" transform="matrix(1,0,0,1,668.569185832007,425) translate(57.779999999999994 59.0875)"/><use xlink:href="#u" transform="matrix(1,0,0,1,668.569185832007,425) translate(66.72999999999999 59.0875)"/><use xlink:href="#v" transform="matrix(1,0,0,1,668.569185832007,425) translate(82.22999999999999 59.0875)"/><path d="M745.07 618.4h-3v-18.58h3zm0-40.18h-3V540.5h3z" stroke="#bdf139" stroke-width=".05" fill="#bdf139"/><path d="M742.4 538.93l1.17.07 1.15-.07.35-.07v1.68h-3v-1.68z" fill="#bdf139"/><path d="M742.42 538.9l1.15.08 1.15-.08.37-.07v1.74h-3.06v-1.74zm-.33 1.62h2.94v-1.63l-.3.05-1.17.08-1.16-.08-.3-.06z" stroke="#bdf139" stroke-width=".05" fill="#bdf139"/><path d="M743.57 634.18l-4.64-14.27h9.27z" fill="#bdf139"/><path d="M743.57 639.03l-6.7-20.62h13.4zM741 621.4l2.57 7.92 2.57-7.9z" stroke="#bdf139" stroke-width=".05" fill="#bdf139"/><use xlink:href="#w" transform="matrix(1,0,0,1,728.1191858320069,578.2159977686083) translate(0 14.4)"/><path d="M874.88 481.5h-51.8v-3h51.8zm71.64 0h-32.7v-3h32.7z" stroke="#bdf139" stroke-width=".05" fill="#bdf139"/><path d="M823.1 481.5h-1.76l.14-.5.1-1-.1-1-.14-.5h1.77z" fill="#bdf139"/><path d="M823.14 481.52h-1.83l.15-.5.1-1.02-.1-1-.14-.52h1.84zm-1.77-3l.13.46.1 1.02-.1 1.02-.13.46h1.72v-2.96z" stroke="#bdf139" stroke-width=".05" fill="#bdf139"/><path d="M962.28 480l-14.26 4.64v-9.28z" fill="#bdf139"/><path d="M967.14 480l-20.62 6.7v-13.4zm-17.62 2.57l7.9-2.57-7.9-2.57z" stroke="#bdf139" stroke-width=".05" fill="#bdf139"/><use xlink:href="#x" transform="matrix(1,0,0,1,874.8794757568036,469.2) translate(0 14.4)"/><path d="M1096.14 440c17.67 0 32 17.9 32 40s-14.33 40-32 40h-96c-17.68 0-32-17.9-32-40s14.32-40 32-40z" stroke="#a9a9a9" stroke-width="2" fill="#f5fbff"/><use xlink:href="#y" transform="matrix(1,0,0,1,973.1361149658651,445) translate(59.55 38.4625)"/><path d="M565.3 426a6 6 0 0 1 6-6h68a6 6 0 0 1 6 6v108a6 6 0 0 1-6 6h-68a6 6 0 0 1-6-6z" fill="none"/><path d="M645.3 540c-5.52 0-10-4.48-10-10v-40c0-5.52-4.47-10-10-10 5.53 0 10-4.48 10-10v-40c0-5.52 4.48-10 10-10" stroke="#a9a9a9" stroke-width="2" fill="none"/><use xlink:href="#z" transform="matrix(1,0,0,1,570.3038115406523,425) translate(2.0999999999999943 58.6)"/><path d="M783.57 332c0 22.1-17.9 40-40 40s-40-17.9-40-40 17.9-40 40-40 40 17.9 40 40z" stroke="#a9a9a9" stroke-width="2" fill="#f5fbff"/><use xlink:href="#A" transform="matrix(1,0,0,1,708.569185832007,296.9999999999999) translate(29 38.4625)"/><path d="M743.57 242.5v27.88" stroke="#bdf139" stroke-width="3" fill="none"/><path d="M745.07 242.54h-3V241h3z" stroke="#bdf139" stroke-width=".05" fill="#bdf139"/><path d="M743.57 286.15l-4.64-14.27h9.27z" stroke="#bdf139" stroke-width="3" fill="#bdf139"/><path d="M743.57 374.5v25.88" stroke="#bdf139" stroke-width="3" fill="none"/><path d="M743.56 373l1.5-.05v1.6h-3v-1.64z" stroke="#bdf139" stroke-width=".05" fill="#bdf139"/><path d="M743.57 416.14l-4.64-14.26h9.27z" stroke="#bdf139" stroke-width="3" fill="#bdf139"/><path d="M692.75 1143.73a10 10 0 0 1 8.82-5.3h106c8.84 0 16 26.87 16 60 0 33.14-7.16 60-16 60h-106a10 10 0 0 1-8.82-5.3l-26.36-49.4a11.25 11.25 0 0 1 0-10.6z" stroke="#a9a9a9" stroke-width="2" fill="#f5fbff"/><use xlink:href="#k" transform="matrix(1,0,0,1,668.569185832007,1143.4324127899854) translate(12.704999999999993 48.775)"/><use xlink:href="#B" transform="matrix(1,0,0,1,668.569185832007,1143.4324127899854) translate(63.55499999999999 48.775)"/><use xlink:href="#C" transform="matrix(1,0,0,1,668.569185832007,1143.4324127899854) translate(78.55499999999999 48.775)"/><use xlink:href="#D" transform="matrix(1,0,0,1,668.569185832007,1143.4324127899854) translate(58.505 70.375)"/><path d="M745.07 1116.85h-3v-17.8h3zm0-39.4h-3v-36.94h3z" stroke="#bdf139" stroke-width=".05" fill="#bdf139"/><path d="M742.4 1038.94l1.17.07 1.16-.06.34-.07v1.68h-3v-1.68z" fill="#bdf139"/><path d="M742.42 1038.92l1.15.07 1.15-.08.37-.08v1.74h-3.06v-1.74zm-.33 1.6h2.94v-1.62l-.3.07-1.17.07-1.16-.07-.3-.07z" stroke="#bdf139" stroke-width=".05" fill="#bdf139"/><path d="M743.57 1132.6l-4.64-14.25h9.27z" fill="#bdf139"/><path d="M743.57 1137.47l-6.7-20.62h13.4zm-2.57-17.62l2.57 7.9 2.57-7.9z" stroke="#bdf139" stroke-width=".05" fill="#bdf139"/><use xlink:href="#w" transform="matrix(1,0,0,1,728.1191858409509,1077.4409350604426) translate(0 14.4)"/><path d="M663.57 1337.7a6.52 6.52 0 0 1 5.97-6.48l148.05-12.3a5.52 5.52 0 0 1 5.97 5.5v68a6 6 0 0 1-6 6h-148a6 6 0 0 1-6-6z" stroke="#a9a9a9" stroke-width="2" fill="#f5fbff"/><use xlink:href="#E" transform="matrix(1,0,0,1,668.5653231198443,1336.7657461233186) translate(40.025 32.2125)"/><path d="M743.98 1260.93V1303.45" stroke="#bdf139" stroke-width="3" fill="none"/><path d="M745.48 1260.97h-3v-1.54h3z" stroke="#bdf139" stroke-width=".05" fill="#bdf139"/><path d="M743.98 1319.22l-4.64-14.27h9.28z" stroke="#bdf139" stroke-width="3" fill="#bdf139"/><path d="M917.32 1143.73a10 10 0 0 1 8.82-5.3h106c8.84 0 16 26.87 16 60 0 33.14-7.16 60-16 60h-106a10 10 0 0 1-8.82-5.3l-26.36-49.4a11.25 11.25 0 0 1 0-10.6z" stroke="#a9a9a9" stroke-width="2" fill="#f5fbff"/><use xlink:href="#k" transform="matrix(1,0,0,1,893.1399755987073,1143.4324127899854) translate(10.579999999999993 48.775)"/><use xlink:href="#B" transform="matrix(1,0,0,1,893.1399755987073,1143.4324127899854) translate(61.42999999999999 48.775)"/><use xlink:href="#F" transform="matrix(1,0,0,1,893.1399755987073,1143.4324127899854) translate(76.42999999999999 48.775)"/><use xlink:href="#D" transform="matrix(1,0,0,1,893.1399755987073,1143.4324127899854) translate(58.505 70.375)"/><path d="M888.14 1337.7a6.52 6.52 0 0 1 5.98-6.48l148.04-12.3a5.52 5.52 0 0 1 5.98 5.5v68a6 6 0 0 1-6 6h-148a6 6 0 0 1-6-6z" stroke="#a9a9a9" stroke-width="2" fill="#f5fbff"/><use xlink:href="#G" transform="matrix(1,0,0,1,893.1361149658652,1336.7657461233186) translate(36.025 32.2125)"/><path d="M968.55 1260.93V1303.45" stroke="#bdf139" stroke-width="3" fill="none"/><path d="M970.05 1260.97h-3v-1.54h3z" stroke="#bdf139" stroke-width=".05" fill="#bdf139"/><path d="M968.55 1319.22l-4.63-14.27h9.27z" stroke="#bdf139" stroke-width="3" fill="#bdf139"/><path d="M963.3 1096.06l1.16.27 1.1.45 1 .62.9.76.75.9.63 1 .45 1.1.3 1.2.06 14.48-3 .02-.07-14.15-.15-.62-.27-.65-.37-.6-.46-.54-.54-.47-.6-.37-.65-.27-.7-.17-.75-.06-101 .07-.62.15-.65.26-.6.37-.53.46-.45.53-.37.6-.27.65-.17.68-.05.77-.07 330.98-.3 1.2-.44 1.1-.62 1-.76.9-.9.77-1 .6-1.1.46-1.13.28-1.12.1-101.45-.08-1.2-.3-1.1-.44-1-.6-.9-.78-.76-.9-.62-1-.45-1.1-.28-1.13-.08-1.12v-32.55h3v32.44l.06.76.16.68.26.66.37.6.46.53.52.46.6.37.66.27.62.15 101 .08.76-.06.68-.17.65-.27.6-.37.53-.46.46-.53.36-.6.27-.66.15-.62.07-330.75.1-1.1.27-1.15.45-1.1.6-1 .78-.9.9-.75 1-.62 1.08-.45 1.2-.3 101.47-.06z" stroke="#bdf139" stroke-width=".05" fill="#bdf139"/><path d="M745.07 1400.93h-3v-1.53h3z" fill="#bdf139"/><path d="M745.1 1400.96h-3.06v-1.6h3.05zm-3-1.54v1.5h2.94v-1.5z" stroke="#bdf139" stroke-width=".05" fill="#bdf139"/><path d="M968.14 1132.6l-4.64-14.25h9.28z" fill="#bdf139"/><path d="M968.14 1137.47l-6.7-20.62h13.4zm-2.57-17.62l2.57 7.9 2.57-7.9z" stroke="#bdf139" stroke-width=".05" fill="#bdf139"/><path d="M1141.9 1143.73a10 10 0 0 1 8.8-5.3h106c8.85 0 16 26.87 16 60 0 33.14-7.15 60-16 60h-106a10 10 0 0 1-8.8-5.3l-26.37-49.4a11.25 11.25 0 0 1 0-10.6z" stroke="#a9a9a9" stroke-width="2" fill="#f5fbff"/><use xlink:href="#k" transform="matrix(1,0,0,1,1117.710767444728,1143.4324127899854) translate(15.154999999999996 48.775)"/><use xlink:href="#B" transform="matrix(1,0,0,1,1117.710767444728,1143.4324127899854) translate(66.005 48.775)"/><use xlink:href="#H" transform="matrix(1,0,0,1,1117.710767444728,1143.4324127899854) translate(81.005 48.775)"/><use xlink:href="#D" transform="matrix(1,0,0,1,1117.710767444728,1143.4324127899854) translate(58.505 70.375)"/><path d="M1112.7 1337.7a6.52 6.52 0 0 1 6-6.48l148.03-12.3a5.52 5.52 0 0 1 5.98 5.5v68a6 6 0 0 1-6 6h-148a6 6 0 0 1-6-6z" stroke="#a9a9a9" stroke-width="2" fill="#f5fbff"/><use xlink:href="#I" transform="matrix(1,0,0,1,1117.7069068118858,1336.7657461233186) translate(37.525 32.2125)"/><path d="M1193.12 1260.93V1303.45" stroke="#bdf139" stroke-width="3" fill="none"/><path d="M1194.62 1260.97h-3v-1.54h3z" stroke="#bdf139" stroke-width=".05" fill="#bdf139"/><path d="M1193.12 1319.22l-4.63-14.27h9.26z" stroke="#bdf139" stroke-width="3" fill="#bdf139"/><path d="M968.14 1400.9v32.5a6 6 0 0 0 6 6h100.28a6 6 0 0 0 6-6v-329.93a6 6 0 0 1 6-6h100.3a6 6 0 0 1 6 6v13.38" stroke="#bdf139" stroke-width="3" fill="none"/><path d="M969.64 1400.93h-3v-1.53h3z" stroke="#bdf139" stroke-width=".05" fill="#bdf139"/><path d="M1192.7 1132.6l-4.62-14.25h9.27z" stroke="#bdf139" stroke-width="3" fill="#bdf139"/><path d="M519.8 1544.23a7.8 7.8 0 0 1 7.53-5.8H974a4.6 4.6 0 0 1 4.45 5.8l-18.24 68.4a7.8 7.8 0 0 1-7.53 5.8H506a4.6 4.6 0 0 1-4.45-5.8z" stroke="#a9a9a9" stroke-width="2" fill="#f5fbff"/><use xlink:href="#J" transform="matrix(1,0,0,1,505.00000000000006,1543.4324127899854) translate(49.930000000000014 38.4625)"/><use xlink:href="#u" transform="matrix(1,0,0,1,505.00000000000006,1543.4324127899854) translate(98.83000000000001 38.4625)"/><use xlink:href="#K" transform="matrix(1,0,0,1,505.00000000000006,1543.4324127899854) translate(114.33000000000001 38.4625)"/><use xlink:href="#L" transform="matrix(1,0,0,1,505.00000000000006,1543.4324127899854) translate(195.23000000000002 38.4625)"/><use xlink:href="#M" transform="matrix(1,0,0,1,505.00000000000006,1543.4324127899854) translate(210.73000000000002 38.4625)"/><use xlink:href="#L" transform="matrix(1,0,0,1,505.00000000000006,1543.4324127899854) translate(293.68 38.4625)"/><use xlink:href="#N" transform="matrix(1,0,0,1,505.00000000000006,1543.4324127899854) translate(309.18 38.4625)"/><use xlink:href="#O" transform="matrix(1,0,0,1,505.00000000000006,1543.4324127899854) translate(395.08 38.4625)"/><use xlink:href="#P" transform="matrix(1,0,0,1,505.00000000000006,1543.4324127899854) translate(405.08 38.4625)"/><path d="M1192.7 1400.9v81.53a6 6 0 0 1-6 6H746a6 6 0 0 0-6 6v22.42" stroke="#bdf139" stroke-width="3" fill="none"/><path d="M1194.2 1400.93h-3v-1.53h3z" stroke="#bdf139" stroke-width=".05" fill="#bdf139"/><path d="M740 1532.6l-4.64-14.25h9.28z" stroke="#bdf139" stroke-width="3" fill="#bdf139"/><path d="M735.2 1702.03a8 8 0 0 1 9.6 0l70.4 52.8a4.5 4.5 0 0 1 0 7.2l-70.4 52.8a8 8 0 0 1-9.6 0l-70.4-52.8a4.5 4.5 0 0 1 0-7.2z" stroke="#a9a9a9" stroke-width="2" fill="#f5fbff"/><use xlink:href="#J" transform="matrix(1,0,0,1,665.0000000000001,1703.4324127899854) translate(32.555 59.0875)"/><use xlink:href="#Q" transform="matrix(1,0,0,1,665.0000000000001,1703.4324127899854) translate(81.45500000000001 59.0875)"/><use xlink:href="#R" transform="matrix(1,0,0,1,665.0000000000001,1703.4324127899854) translate(107.455 59.0875)"/><path d="M740 1620.9v57.9" stroke="#bdf139" stroke-width="3" fill="none"/><path d="M741.5 1620.94h-3v-1.54h3z" stroke="#bdf139" stroke-width=".05" fill="#bdf139"/><path d="M740 1694.58l-4.64-14.27h9.28z" stroke="#bdf139" stroke-width="3" fill="#bdf139"/><path d="M1009.18 1703.73a10 10 0 0 1 8.82-5.3h106c8.84 0 16 26.87 16 60 0 33.14-7.16 60-16 60h-106a10 10 0 0 1-8.82-5.3l-26.36-49.4a11.25 11.25 0 0 1 0-10.6z" stroke="#a9a9a9" stroke-width="2" fill="#f5fbff"/><use xlink:href="#S" transform="matrix(1,0,0,1,985,1703.4324127899854) translate(22.73 59.0875)"/><path d="M883.8 1759.93h-64.3v-3h64.3zm76.08 0H914.7v-3h45.18z" stroke="#bdf139" stroke-width=".05" fill="#bdf139"/><path d="M819.54 1759.93h-1.77l.14-.48.1-1.02-.1-1-.13-.5h1.77z" fill="#bdf139"/><path d="M819.57 1759.96h-1.83l.15-.52.08-1-.1-1.02-.14-.5h1.83zm-1.77-3l.13.45.1 1.03-.1 1.02-.13.46h1.72v-2.94z" stroke="#bdf139" stroke-width=".05" fill="#bdf139"/><path d="M975.64 1758.43l-14.26 4.64v-9.27z" fill="#bdf139"/><path d="M980.5 1758.43l-20.62 6.7v-13.4zm-17.62 2.57l7.9-2.57-7.9-2.57z" stroke="#bdf139" stroke-width=".05" fill="#bdf139"/><use xlink:href="#w" transform="matrix(1,0,0,1,883.8015417746315,1747.6324127899854) translate(0 14.4)"/><path d="M735.2 1902.03a8 8 0 0 1 9.6 0l70.4 52.8a4.5 4.5 0 0 1 0 7.2l-70.4 52.8a8 8 0 0 1-9.6 0l-70.4-52.8a4.5 4.5 0 0 1 0-7.2z" stroke="#a9a9a9" stroke-width="2" fill="#f5fbff"/><use xlink:href="#J" transform="matrix(1,0,0,1,665.0000000000001,1903.4324127899854) translate(25.054999999999996 48.775)"/><use xlink:href="#Q" transform="matrix(1,0,0,1,665.0000000000001,1903.4324127899854) translate(73.95500000000001 48.775)"/><use xlink:href="#T" transform="matrix(1,0,0,1,665.0000000000001,1903.4324127899854) translate(99.95500000000001 48.775)"/><use xlink:href="#U" transform="matrix(1,0,0,1,665.0000000000001,1903.4324127899854) translate(114.95500000000001 48.775)"/><use xlink:href="#V" transform="matrix(1,0,0,1,665.0000000000001,1903.4324127899854) translate(37.80499999999999 70.375)"/><use xlink:href="#W" transform="matrix(1,0,0,1,665.0000000000001,1903.4324127899854) translate(86.70500000000001 70.375)"/><use xlink:href="#X" transform="matrix(1,0,0,1,665.0000000000001,1903.4324127899854) translate(102.20500000000001 70.375)"/><path d="M1012.75 1903.73a10 10 0 0 1 8.82-5.3h106c8.84 0 16 26.87 16 60 0 33.14-7.16 60-16 60h-106a10 10 0 0 1-8.82-5.3l-26.36-49.4a11.25 11.25 0 0 1 0-10.6z" stroke="#a9a9a9" stroke-width="2" fill="#f5fbff"/><use xlink:href="#Y" transform="matrix(1,0,0,1,988.569185832007,1903.4324127899854) translate(3.6300000000000043 59.0875)"/><path d="M741.5 1878.8h-3v-9.57h3zm0-31.17h-3v-28.7h3z" stroke="#bdf139" stroke-width=".05" fill="#bdf139"/><path d="M738.84 1817.36l1.16.07 1.16-.07.34-.07v1.67h-3v-1.68z" fill="#bdf139"/><path d="M738.85 1817.34l1.15.07 1.15-.06.38-.08v1.74h-3.05v-1.74zm-.33 1.6h2.96v-1.62l-.32.06-1.16.08-1.16-.08-.32-.06z" stroke="#bdf139" stroke-width=".05" fill="#bdf139"/><path d="M740 1894.58l-4.64-14.27h9.28z" fill="#bdf139"/><path d="M740 1899.43l-6.7-20.62h13.4zm-2.57-17.62l2.57 7.92 2.57-7.9z" stroke="#bdf139" stroke-width=".05" fill="#bdf139"/><use xlink:href="#x" transform="matrix(1,0,0,1,720.5250000000001,1847.6324127899854) translate(0 14.4)"/><path d="M885.6 1959.93h-66.1v-3h66.1zm77.85 0H916.5v-3h46.95z" stroke="#bdf139" stroke-width=".05" fill="#bdf139"/><path d="M819.54 1959.93h-1.77l.14-.48.1-1.02-.1-1-.13-.5h1.77z" fill="#bdf139"/><path d="M819.57 1959.96h-1.83l.15-.52.08-1-.1-1.02-.14-.5h1.83zm-1.77-3l.13.45.1 1.03-.1 1.02-.13.46h1.72v-2.94z" stroke="#bdf139" stroke-width=".05" fill="#bdf139"/><path d="M979.2 1958.43l-14.25 4.64v-9.27z" fill="#bdf139"/><path d="M984.07 1958.43l-20.62 6.7v-13.4zm-17.62 2.57l7.9-2.57-7.9-2.57z" stroke="#bdf139" stroke-width=".05" fill="#bdf139"/><use xlink:href="#w" transform="matrix(1,0,0,1,885.5861346906349,1947.6324127899854) translate(0 14.4)"/><path d="M689.18 2103.73a10 10 0 0 1 8.82-5.3h106c8.84 0 16 26.87 16 60 0 33.14-7.16 60-16 60H698a10 10 0 0 1-8.82-5.3l-26.36-49.4a11.25 11.25 0 0 1 0-10.6z" stroke="#a9a9a9" stroke-width="2" fill="#f5fbff"/><g><use xlink:href="#Z" transform="matrix(1,0,0,1,665.0000000000005,2103.4324127899854) translate(16.254999999999992 59.0875)"/></g><path d="M741.5 2076.85h-3v-8.6h3zm0-30.2h-3v-27.72h3z" stroke="#bdf139" stroke-width=".05" fill="#bdf139"/><path d="M738.84 2017.36l1.16.07 1.16-.07.34-.07v1.67h-3v-1.68z" fill="#bdf139"/><path d="M738.85 2017.34l1.15.07 1.15-.06.38-.08v1.74h-3.05v-1.74zm-.33 1.6h2.96v-1.62l-.32.06-1.16.08-1.16-.08-.32-.06z" stroke="#bdf139" stroke-width=".05" fill="#bdf139"/><path d="M740 2092.6l-4.64-14.25h9.28z" fill="#bdf139"/><path d="M740 2097.47l-6.7-20.62h13.4zm-2.57-17.62l2.57 7.9 2.57-7.9z" stroke="#bdf139" stroke-width=".05" fill="#bdf139"/><g><use xlink:href="#x" transform="matrix(1,0,0,1,720.5250000000001,2046.6508915415418) translate(0 14.4)"/></g><path d="M1272.7 2158.43c0 22.1-17.9 40-40 40-22.08 0-40-17.9-40-40s17.92-40 40-40c22.1 0 40 17.9 40 40z" stroke="#a9a9a9" stroke-width="2" fill="#f5fbff"/><g><use xlink:href="#A" transform="matrix(1,0,0,1,1197.710767444728,2123.4324127899854) translate(29 38.4625)"/></g><path d="M822.5 2158.43h348.6" stroke="#bdf139" stroke-width="3" fill="none"/><path d="M822.54 2159.93h-1.6l.06-1.5-.05-1.5h1.6z" stroke="#bdf139" stroke-width=".05" fill="#bdf139"/><path d="M1186.86 2158.43l-14.27 4.64v-9.27z" stroke="#bdf139" stroke-width="3" fill="#bdf139"/><path d="M1260.42 1958.43c0 16.57-12.4 30-27.7 30-15.32 0-27.73-13.43-27.73-30s12.4-30 27.7-30c15.3 0 27.72 13.43 27.72 30z" stroke="#a9a9a9" stroke-width="2" fill="#f5fbff"/><path d="M1146.07 1958.43h37.3" stroke="#bdf139" stroke-width="3" fill="none"/><path d="M1146.1 1959.93h-1.6l.07-1.5-.05-1.5h1.6z" stroke="#bdf139" stroke-width=".05" fill="#bdf139"/><path d="M1199.14 1958.43l-14.27 4.64v-9.27z" stroke="#bdf139" stroke-width="3" fill="#bdf139"/><path d="M1142.5 1758.43h84.2a6 6 0 0 1 6 6v142.38" stroke="#bdf139" stroke-width="3" fill="none"/><path d="M1142.54 1759.93h-1.6l.06-1.5-.05-1.5h1.6z" stroke="#bdf139" stroke-width=".05" fill="#bdf139"/><path d="M1232.7 1922.58l-4.63-14.27h9.27z" stroke="#bdf139" stroke-width="3" fill="#bdf139"/><path d="M1232.7 1990.93v105.88" stroke="#bdf139" stroke-width="3" fill="none"/><path d="M1232.68 1989.43l1.53-.05v1.6h-3v-1.67z" stroke="#bdf139" stroke-width=".05" fill="#bdf139"/><path d="M1232.7 2112.58l-4.62-14.27h9.27z" stroke="#bdf139" stroke-width="3" fill="#bdf139"/><path d="M949.18 915.3A10 10 0 0 1 958 910h106c8.84 0 16 26.86 16 60s-7.16 60-16 60H958a10 10 0 0 1-8.82-5.3l-26.36-49.4a11.25 11.25 0 0 1 0-10.6z" stroke="#a9a9a9" stroke-width="2" fill="#f5fbff"/><g><use xlink:href="#aa" transform="matrix(1,0,0,1,925,915.0000000399525) translate(19.755 59.0875)"/><use xlink:href="#ab" transform="matrix(1,0,0,1,925,915.0000000399525) translate(48.705 59.0875)"/></g><path d="M858.6 971.5h-21.47v-3h21.46zm41.28 0h-2.34v-3h2.34z" stroke="#bdf139" stroke-width=".05" fill="#bdf139"/><path d="M837.17 971.5h-1.78l.13-.5.1-1-.1-1-.14-.5h1.77z" fill="#bdf139"/><path d="M837.2 971.52h-1.84l.15-.5.1-1.02-.1-1-.14-.52h1.83zm-1.77-3l.13.46.1 1.02-.1 1.02-.13.46h1.7v-2.96z" stroke="#bdf139" stroke-width=".05" fill="#bdf139"/><path d="M915.64 970l-14.26 4.64v-9.28z" fill="#bdf139"/><path d="M920.5 970l-20.62 6.7v-13.4zm-17.62 2.57l7.9-2.57-7.9-2.57z" stroke="#bdf139" stroke-width=".05" fill="#bdf139"/><g><use xlink:href="#x" transform="matrix(1,0,0,1,858.588125065465,959.2000000000008) translate(0 14.4)"/></g><path d="M1122.87 930.8a7.8 7.8 0 0 1 7.55-5.8h124a4.6 4.6 0 0 1 4.45 5.8l-20.9 78.4a7.8 7.8 0 0 1-7.55 5.8h-124a4.6 4.6 0 0 1-4.45-5.8z" stroke="#a9a9a9" stroke-width="2" fill="#f5fbff"/><g><use xlink:href="#t" transform="matrix(1,0,0,1,1105.4195805724546,930) translate(57.279999999999994 44.4)"/><use xlink:href="#u" transform="matrix(1,0,0,1,1105.4195805724546,930) translate(66.22999999999999 44.4)"/><use xlink:href="#s" transform="matrix(1,0,0,1,1105.4195805724546,930) translate(81.72999999999999 44.4)"/></g><path d="M1082.5 970h8.3" stroke="#bdf139" stroke-width="3" fill="none"/><path d="M1082.54 971.5h-1.6l.06-1.5-.05-1.5h1.6z" stroke="#bdf139" stroke-width=".05" fill="#bdf139"/><path d="M1106.57 970l-14.27 4.64v-9.28z" stroke="#bdf139" stroke-width="3" fill="#bdf139"/><path d="M1380 965c0 22.1-17.9 40-40 40s-40-17.9-40-40 17.9-40 40-40 40 17.9 40 40z" stroke="#a9a9a9" stroke-width="2" fill="#f5fbff"/><g><use xlink:href="#A" transform="matrix(1,0,0,1,1305,930) translate(29 38.4625)"/></g><path d="M1250.9 970h27.86" stroke="#bdf139" stroke-width="3" fill="none"/><path d="M1250.95 971.5h-1.93l.8-3h1.13z" stroke="#bdf139" stroke-width=".05" fill="#bdf139"/><path d="M1294.52 970l-14.26 4.64v-9.28z" stroke="#bdf139" stroke-width="3" fill="#bdf139"/><defs><path fill="#fff" d="M24 0v-248h195v40H76v63h132v40H76v65h150V0H24" id="ac"/><path fill="#fff" d="M182 0l-62-99L58 0H3l86-130-79-118h55l55 88 55-88h55l-75 118L237 0h-55" id="ad"/><path fill="#fff" d="M240-174c0 40-23 61-54 70L253 0h-59l-57-94H76V0H24v-248c93 4 217-23 216 74zM76-134c48-2 112 12 112-38 0-48-66-32-112-35v73" id="ae"/><path fill="#fff" d="M67-125c0 53 21 87 73 88 37 1 54-22 65-47l45 17C233-25 199 4 140 4 58 4 20-42 15-125 8-235 124-281 211-232c18 10 29 29 36 50l-46 12c-8-25-30-41-62-41-52 0-71 34-72 86" id="af"/><path fill="#fff" d="M18-269v-5l45-45h45v8l-60 42H18zM24 0v-248h52V0H24" id="ag"/><path fill="#fff" d="M24 0v-248h52V0H24" id="ah"/><path fill="#fff" d="M140-251c80 0 125 45 125 126S219 4 139 4C58 4 15-44 15-125s44-126 125-126zm-1 214c52 0 73-35 73-88 0-50-21-86-72-86-52 0-73 35-73 86s22 88 72 88" id="ai"/><g id="a"><use transform="matrix(0.09259259259259255,0,0,0.09259259259259255,0,0)" xlink:href="#ac"/><use transform="matrix(0.09259259259259255,0,0,0.09259259259259255,22.22222222222221,0)" xlink:href="#ad"/><use transform="matrix(0.09259259259259255,0,0,0.09259259259259255,44.44444444444442,0)" xlink:href="#ac"/><use transform="matrix(0.09259259259259255,0,0,0.09259259259259255,66.66666666666663,0)" xlink:href="#ae"/><use transform="matrix(0.09259259259259255,0,0,0.09259259259259255,90.6481481481481,0)" xlink:href="#af"/><use transform="matrix(0.09259259259259255,0,0,0.09259259259259255,114.62962962962958,0)" xlink:href="#ag"/><use transform="matrix(0.09259259259259255,0,0,0.09259259259259255,123.8888888888888,0)" xlink:href="#af"/><use transform="matrix(0.09259259259259255,0,0,0.09259259259259255,147.8703703703703,0)" xlink:href="#ah"/><use transform="matrix(0.09259259259259255,0,0,0.09259259259259255,157.12962962962956,0)" xlink:href="#ai"/></g><path fill="#fff" d="M175 0L67-191c6 58 2 128 3 191H24v-248h59L193-55c-6-58-2-129-3-193h46V0h-61" id="aj"/><path fill="#fff" d="M24-248c120-7 223 5 221 122C244-46 201 0 124 0H24v-248zM76-40c74 7 117-18 117-86 0-67-45-88-117-82v168" id="ak"/><path fill="#fff" d="M147 0H94L2-248h55l64 206c17-72 42-137 63-206h54" id="al"/><path fill="#fff" d="M238-95c0 69-44 99-111 99C63 4 22-25 22-93v-155h51v151c-1 38 19 59 55 60 90 1 49-130 58-211h52v153" id="am"/><path fill="#fff" d="M199 0l-22-63H83L61 0H9l90-248h61L250 0h-51zm-33-102l-36-108c-10 38-24 72-36 108h72" id="an"/><path fill="#fff" d="M24 0v-248h52v208h133V0H24" id="ao"/><g id="b"><use transform="matrix(0.09259259259259255,0,0,0.09259259259259255,0,0)" xlink:href="#ah"/><use transform="matrix(0.09259259259259255,0,0,0.09259259259259255,9.259259259259254,0)" xlink:href="#aj"/><use transform="matrix(0.09259259259259255,0,0,0.09259259259259255,33.240740740740726,0)" xlink:href="#ak"/><use transform="matrix(0.09259259259259255,0,0,0.09259259259259255,57.22222222222221,0)" xlink:href="#ah"/><use transform="matrix(0.09259259259259255,0,0,0.09259259259259255,66.48148148148145,0)" xlink:href="#al"/><use transform="matrix(0.09259259259259255,0,0,0.09259259259259255,88.70370370370367,0)" xlink:href="#ah"/><use transform="matrix(0.09259259259259255,0,0,0.09259259259259255,97.96296296296292,0)" xlink:href="#ak"/><use transform="matrix(0.09259259259259255,0,0,0.09259259259259255,121.94444444444439,0)" xlink:href="#am"/><use transform="matrix(0.09259259259259255,0,0,0.09259259259259255,145.92592592592587,0)" xlink:href="#an"/><use transform="matrix(0.09259259259259255,0,0,0.09259259259259255,169.90740740740733,0)" xlink:href="#ao"/></g><path fill="#fff" d="M14-72v-43h91v43H14" id="ap"/><use transform="matrix(0.09259259259259255,0,0,0.09259259259259255,0,0)" xlink:href="#ap" id="c"/><path fill="#fff" d="M230 0l2-204L168 0h-37L68-204 70 0H24v-248h70l56 185 57-185h69V0h-46" id="aq"/><g id="d"><use transform="matrix(0.09259259259259255,0,0,0.09259259259259255,0,0)" xlink:href="#aq"/><use transform="matrix(0.09259259259259255,0,0,0.09259259259259255,27.685185185185173,0)" xlink:href="#ac"/><use transform="matrix(0.09259259259259255,0,0,0.09259259259259255,49.90740740740738,0)" xlink:href="#ak"/><use transform="matrix(0.09259259259259255,0,0,0.09259259259259255,73.88888888888886,0)" xlink:href="#ah"/><use transform="matrix(0.09259259259259255,0,0,0.09259259259259255,83.14814814814811,0)" xlink:href="#an"/></g><path fill="#fff" d="M76-208v77h127v40H76V0H24v-248h183v40H76" id="ar"/><path fill="#fff" d="M136-208V0H84v-208H4v-40h212v40h-80" id="as"/><g id="e"><use transform="matrix(0.09259259259259255,0,0,0.09259259259259255,0,0)" xlink:href="#ar"/><use transform="matrix(0.09259259259259255,0,0,0.09259259259259255,20.277777777777768,0)" xlink:href="#am"/><use transform="matrix(0.09259259259259255,0,0,0.09259259259259255,44.25925925925924,0)" xlink:href="#aj"/><use transform="matrix(0.09259259259259255,0,0,0.09259259259259255,68.2407407407407,0)" xlink:href="#ak"/><use transform="matrix(0.09259259259259255,0,0,0.09259259259259255,92.22222222222217,0)" xlink:href="#an"/><use transform="matrix(0.09259259259259255,0,0,0.09259259259259255,116.20370370370364,0)" xlink:href="#aq"/><use transform="matrix(0.09259259259259255,0,0,0.09259259259259255,143.8888888888888,0)" xlink:href="#ac"/><use transform="matrix(0.09259259259259255,0,0,0.09259259259259255,166.111111111111,0)" xlink:href="#aj"/><use transform="matrix(0.09259259259259255,0,0,0.09259259259259255,190.09259259259247,0)" xlink:href="#as"/><use transform="matrix(0.09259259259259255,0,0,0.09259259259259255,207.8703703703702,0)" xlink:href="#an"/><use transform="matrix(0.09259259259259255,0,0,0.09259259259259255,231.8518518518517,0)" xlink:href="#ao"/></g><path fill="#54c45e" d="M205 0l-28-72H64L36 0H1l101-248h38L239 0h-34zm-38-99l-47-123c-12 45-31 82-46 123h93" id="at"/><path fill="#54c45e" d="M30 0v-248h33v221h125V0H30" id="au"/><path fill="#54c45e" d="M143 4C61 4 22-44 18-125c-5-107 100-154 193-111 17 8 29 25 37 43l-32 9c-13-25-37-40-76-40-61 0-88 39-88 99 0 61 29 100 91 101 35 0 62-11 79-27v-45h-74v-28h105v86C228-13 192 4 143 4" id="av"/><path fill="#54c45e" d="M140-251c81 0 123 46 123 126C263-46 219 4 140 4 59 4 17-45 17-125s42-126 123-126zm0 227c63 0 89-41 89-101s-29-99-89-99c-61 0-89 39-89 99S79-25 140-24" id="aw"/><path fill="#54c45e" d="M233-177c-1 41-23 64-60 70L243 0h-38l-65-103H63V0H30v-248c88 3 205-21 203 71zM63-129c60-2 137 13 137-47 0-61-80-42-137-45v92" id="ax"/><path fill="#54c45e" d="M33 0v-248h34V0H33" id="ay"/><path fill="#54c45e" d="M127-220V0H93v-220H8v-28h204v28h-85" id="az"/><path fill="#54c45e" d="M240 0l2-218c-23 76-54 145-80 218h-23L58-218 59 0H30v-248h44l77 211c21-75 51-140 76-211h43V0h-30" id="aA"/><path fill="#54c45e" d="M185-189c-5-48-123-54-124 2 14 75 158 14 163 119 3 78-121 87-175 55-17-10-28-26-33-46l33-7c5 56 141 63 141-1 0-78-155-14-162-118-5-82 145-84 179-34 5 7 8 16 11 25" id="aB"/><g id="f"><use transform="matrix(0.0679012345679012,0,0,0.0679012345679012,0,0)" xlink:href="#at"/><use transform="matrix(0.0679012345679012,0,0,0.0679012345679012,16.29629629629629,0)" xlink:href="#au"/><use transform="matrix(0.0679012345679012,0,0,0.0679012345679012,29.87654320987653,0)" xlink:href="#av"/><use transform="matrix(0.0679012345679012,0,0,0.0679012345679012,48.88888888888887,0)" xlink:href="#aw"/><use transform="matrix(0.0679012345679012,0,0,0.0679012345679012,67.90123456790121,0)" xlink:href="#ax"/><use transform="matrix(0.0679012345679012,0,0,0.0679012345679012,85.48765432098762,0)" xlink:href="#ay"/><use transform="matrix(0.0679012345679012,0,0,0.0679012345679012,92.27777777777776,0)" xlink:href="#az"/><use transform="matrix(0.0679012345679012,0,0,0.0679012345679012,107.14814814814811,0)" xlink:href="#aA"/><use transform="matrix(0.0679012345679012,0,0,0.0679012345679012,127.45061728395058,0)" xlink:href="#aw"/><use transform="matrix(0.0679012345679012,0,0,0.0679012345679012,146.4629629629629,0)" xlink:href="#aB"/></g><path fill="#54c45e" d="M30-248c118-7 216 8 213 122C240-48 200 0 122 0H30v-248zM63-27c89 8 146-16 146-99s-60-101-146-95v194" id="aC"/><path fill="#54c45e" d="M30 0v-248h187v28H63v79h144v27H63v87h162V0H30" id="aD"/><g id="g"><use transform="matrix(0.0679012345679012,0,0,0.0679012345679012,0,0)" xlink:href="#aC"/><use transform="matrix(0.0679012345679012,0,0,0.0679012345679012,17.58641975308641,0)" xlink:href="#aD"/></g><path fill="#54c45e" d="M30-248c87 1 191-15 191 75 0 78-77 80-158 76V0H30v-248zm33 125c57 0 124 11 124-50 0-59-68-47-124-48v98" id="aE"/><path fill="#54c45e" d="M212-179c-10-28-35-45-73-45-59 0-87 40-87 99 0 60 29 101 89 101 43 0 62-24 78-52l27 14C228-24 195 4 139 4 59 4 22-46 18-125c-6-104 99-153 187-111 19 9 31 26 39 46zM142 18c19-1 33 8 33 26 0 31-30 33-64 32V58c18 2 39 4 41-13 1-15-18-13-34-13l12-32h19" id="aF"/><path fill="#54c45e" d="M184-316c-4 23-8 48-36 47s-64-43-75 0H57c4-23 8-48 36-47s64 44 74 0h17zM205 0l-28-72H64L36 0H1l101-248h38L239 0h-34zm-38-99l-47-123c-12 45-31 82-46 123h93" id="aG"/><g id="h"><use transform="matrix(0.0679012345679012,0,0,0.0679012345679012,0,0)" xlink:href="#aE"/><use transform="matrix(0.0679012345679012,0,0,0.0679012345679012,16.29629629629629,0)" xlink:href="#ax"/><use transform="matrix(0.0679012345679012,0,0,0.0679012345679012,33.8827160493827,0)" xlink:href="#aw"/><use transform="matrix(0.0679012345679012,0,0,0.0679012345679012,52.895061728395035,0)" xlink:href="#av"/><use transform="matrix(0.0679012345679012,0,0,0.0679012345679012,71.90740740740738,0)" xlink:href="#at"/><use transform="matrix(0.0679012345679012,0,0,0.0679012345679012,88.20370370370367,0)" xlink:href="#aA"/><use transform="matrix(0.0679012345679012,0,0,0.0679012345679012,108.50617283950612,0)" xlink:href="#at"/><use transform="matrix(0.0679012345679012,0,0,0.0679012345679012,124.80246913580241,0)" xlink:href="#aF"/><use transform="matrix(0.0679012345679012,0,0,0.0679012345679012,142.38888888888883,0)" xlink:href="#aG"/><use transform="matrix(0.0679012345679012,0,0,0.0679012345679012,158.6851851851851,0)" xlink:href="#aw"/></g><path fill="#5f6572" d="M24-231v-30h32v30H24zM24 0v-190h32V0H24" id="aH"/><path fill="#5f6572" d="M117-194c89-4 53 116 60 194h-32v-121c0-31-8-49-39-48C34-167 62-67 57 0H25l-1-190h30c1 10-1 24 2 32 11-22 29-35 61-36" id="aI"/><path fill="#5f6572" d="M96-169c-40 0-48 33-48 73s9 75 48 75c24 0 41-14 43-38l32 2c-6 37-31 61-74 61-59 0-76-41-82-99-10-93 101-131 147-64 4 7 5 14 7 22l-32 3c-4-21-16-35-41-35" id="aJ"/><path fill="#5f6572" d="M100-194c62-1 85 37 85 99 1 63-27 99-86 99S16-35 15-95c0-66 28-99 85-99zM99-20c44 1 53-31 53-75 0-43-8-75-51-75s-53 32-53 75 10 74 51 75" id="aK"/><g id="i"><use transform="matrix(0.05,0,0,0.05,0,0)" xlink:href="#aH"/><use transform="matrix(0.05,0,0,0.05,3.95,0)" xlink:href="#aI"/><use transform="matrix(0.05,0,0,0.05,13.949999999999998,0)" xlink:href="#aH"/><use transform="matrix(0.05,0,0,0.05,17.9,0)" xlink:href="#aJ"/><use transform="matrix(0.05,0,0,0.05,26.899999999999995,0)" xlink:href="#aH"/><use transform="matrix(0.05,0,0,0.05,30.849999999999994,0)" xlink:href="#aK"/></g><path fill="#5f6572" d="M114-163C36-179 61-72 57 0H25l-1-190h30c1 12-1 29 2 39 6-27 23-49 58-41v29" id="aL"/><path fill="#5f6572" d="M141-36C126-15 110 5 73 4 37 3 15-17 15-53c-1-64 63-63 125-63 3-35-9-54-41-54-24 1-41 7-42 31l-33-3c5-37 33-52 76-52 45 0 72 20 72 64v82c-1 20 7 32 28 27v20c-31 9-61-2-59-35zM48-53c0 20 12 33 32 33 41-3 63-29 60-74-43 2-92-5-92 41" id="aM"/><g id="j"><use transform="matrix(0.05,0,0,0.05,0,0)" xlink:href="#aL"/><use transform="matrix(0.05,0,0,0.05,5.95,0)" xlink:href="#aM"/></g><path fill="#5f6572" d="M30-248c118-7 216 8 213 122C240-48 200 0 122 0H30v-248zM63-27c89 8 146-16 146-99s-60-101-146-95v194" id="aN"/><path fill="#5f6572" d="M177-190C167-65 218 103 67 71c-23-6-38-20-44-43l32-5c15 47 100 32 89-28v-30C133-14 115 1 83 1 29 1 15-40 15-95c0-56 16-97 71-98 29-1 48 16 59 35 1-10 0-23 2-32h30zM94-22c36 0 50-32 50-73 0-42-14-75-50-75-39 0-46 34-46 75s6 73 46 73" id="aO"/><path fill="#5f6572" d="M59-47c-2 24 18 29 38 22v24C64 9 27 4 27-40v-127H5v-23h24l9-43h21v43h35v23H59v120" id="aP"/><path fill="#5f6572" d="M100-194c63 0 86 42 84 106H49c0 40 14 67 53 68 26 1 43-12 49-29l28 8c-11 28-37 45-77 45C44 4 14-33 15-96c1-61 26-98 85-98zm52 81c6-60-76-77-97-28-3 7-6 17-6 28h103" id="aQ"/><g id="k"><use transform="matrix(0.05,0,0,0.05,0,0)" xlink:href="#aN"/><use transform="matrix(0.05,0,0,0.05,12.950000000000001,0)" xlink:href="#aH"/><use transform="matrix(0.05,0,0,0.05,16.900000000000002,0)" xlink:href="#aO"/><use transform="matrix(0.05,0,0,0.05,26.900000000000002,0)" xlink:href="#aH"/><use transform="matrix(0.05,0,0,0.05,30.85,0)" xlink:href="#aP"/><use transform="matrix(0.05,0,0,0.05,35.85,0)" xlink:href="#aQ"/></g><path fill="#5f6572" d="M135-143c-3-34-86-38-87 0 15 53 115 12 119 90S17 21 10-45l28-5c4 36 97 45 98 0-10-56-113-15-118-90-4-57 82-63 122-42 12 7 21 19 24 35" id="aR"/><path fill="#5f6572" d="M84 4C-5 8 30-112 23-190h32v120c0 31 7 50 39 49 72-2 45-101 50-169h31l1 190h-30c-1-10 1-25-2-33-11 22-28 36-60 37" id="aS"/><g id="l"><use transform="matrix(0.05,0,0,0.05,0,0)" xlink:href="#aR"/><use transform="matrix(0.05,0,0,0.05,9,0)" xlink:href="#aQ"/><use transform="matrix(0.05,0,0,0.05,19,0)" xlink:href="#aS"/></g><path fill="#5f6572" d="M233-177c-1 41-23 64-60 70L243 0h-38l-65-103H63V0H30v-248c88 3 205-21 203 71zM63-129c60-2 137 13 137-47 0-61-80-42-137-45v92" id="aT"/><path fill="#5f6572" d="M205 0l-28-72H64L36 0H1l101-248h38L239 0h-34zm-38-99l-47-123c-12 45-31 82-46 123h93" id="aU"/><path fill="#5f6572" d="M33-154v-36h34v36H33zM33 0v-36h34V0H33" id="aV"/><g id="m"><use transform="matrix(0.05,0,0,0.05,0,0)" xlink:href="#aT"/><use transform="matrix(0.05,0,0,0.05,12.950000000000001,0)" xlink:href="#aU"/><use transform="matrix(0.05,0,0,0.05,24.950000000000003,0)" xlink:href="#aV"/></g><g id="n"><use transform="matrix(0.05,0,0,0.05,0,0)" xlink:href="#aR"/><use transform="matrix(0.05,0,0,0.05,9,0)" xlink:href="#aQ"/></g><path fill="#5f6572" d="M47-170H22l-4-78h33" id="aW"/><g id="o"><use transform="matrix(0.05,0,0,0.05,0,0)" xlink:href="#aW"/><use transform="matrix(0.05,0,0,0.05,3.4000000000000004,0)" xlink:href="#aL"/><use transform="matrix(0.05,0,0,0.05,9.350000000000001,0)" xlink:href="#aM"/><use transform="matrix(0.05,0,0,0.05,19.35,0)" xlink:href="#aW"/></g><path fill="#5f6572" d="M101-234c-31-9-42 10-38 44h38v23H63V0H32v-167H5v-23h27c-7-52 17-82 69-68v24" id="aX"/><g id="p"><use transform="matrix(0.05,0,0,0.05,0,0)" xlink:href="#aX"/><use transform="matrix(0.05,0,0,0.05,5,0)" xlink:href="#aK"/><use transform="matrix(0.05,0,0,0.05,15,0)" xlink:href="#aL"/></g><path fill="#5f6572" d="M85-194c31 0 48 13 60 33l-1-100h32l1 261h-30c-2-10 0-23-3-31C134-8 116 4 85 4 32 4 16-35 15-94c0-66 23-100 70-100zm9 24c-40 0-46 34-46 75 0 40 6 74 45 74 42 0 51-32 51-76 0-42-9-74-50-73" id="aY"/><g id="q"><use transform="matrix(0.05,0,0,0.05,0,0)" xlink:href="#aY"/><use transform="matrix(0.05,0,0,0.05,10,0)" xlink:href="#aH"/><use transform="matrix(0.05,0,0,0.05,13.949999999999998,0)" xlink:href="#aX"/><use transform="matrix(0.05,0,0,0.05,18.95,0)" xlink:href="#aQ"/><use transform="matrix(0.05,0,0,0.05,28.950000000000003,0)" xlink:href="#aL"/><use transform="matrix(0.05,0,0,0.05,34.9,0)" xlink:href="#aQ"/><use transform="matrix(0.05,0,0,0.05,44.9,0)" xlink:href="#aI"/><use transform="matrix(0.05,0,0,0.05,54.900000000000006,0)" xlink:href="#aP"/><use transform="matrix(0.05,0,0,0.05,59.900000000000006,0)" xlink:href="#aQ"/></g><g id="r"><use transform="matrix(0.05,0,0,0.05,0,0)" xlink:href="#aY"/><use transform="matrix(0.05,0,0,0.05,10,0)" xlink:href="#aQ"/></g><path fill="#5f6572" d="M101-251c68 0 85 55 85 127S166 4 100 4C33 4 14-52 14-124c0-73 17-127 87-127zm-1 229c47 0 54-49 54-102s-4-102-53-102c-51 0-55 48-55 102 0 53 5 102 54 102" id="aZ"/><use transform="matrix(0.05,0,0,0.05,0,0)" xlink:href="#aZ" id="s"/><use transform="matrix(0.05,0,0,0.05,0,0)" xlink:href="#aH" id="t"/><path fill="#5f6572" d="M18-150v-26h174v26H18zm0 90v-26h174v26H18" id="ba"/><use transform="matrix(0.05,0,0,0.05,0,0)" xlink:href="#ba" id="u"/><path fill="#5f6572" d="M27 0v-27h64v-190l-56 39v-29l58-41h29v221h61V0H27" id="bb"/><use transform="matrix(0.05,0,0,0.05,0,0)" xlink:href="#bb" id="v"/><path fill="#fff" d="M185-189c-5-48-123-54-124 2 14 75 158 14 163 119 3 78-121 87-175 55-17-10-28-26-33-46l33-7c5 56 141 63 141-1 0-78-155-14-162-118-5-82 145-84 179-34 5 7 8 16 11 25" id="bc"/><path fill="#fff" d="M24-231v-30h32v30H24zM24 0v-190h32V0H24" id="bd"/><path fill="#fff" d="M210-169c-67 3-38 105-44 169h-31v-121c0-29-5-50-35-48C34-165 62-65 56 0H25l-1-190h30c1 10-1 24 2 32 10-44 99-50 107 0 11-21 27-35 58-36 85-2 47 119 55 194h-31v-121c0-29-5-49-35-48" id="be"/><g id="w"><use transform="matrix(0.05,0,0,0.05,0,0)" xlink:href="#bc"/><use transform="matrix(0.05,0,0,0.05,12,0)" xlink:href="#bd"/><use transform="matrix(0.05,0,0,0.05,15.949999999999998,0)" xlink:href="#be"/></g><path fill="#fff" d="M190 0L58-211 59 0H30v-248h39L202-35l-2-213h31V0h-41" id="bf"/><path fill="#fff" d="M184-316c-4 23-8 48-36 47s-64-43-75 0H57c4-23 8-48 36-47s64 44 74 0h17zM205 0l-28-72H64L36 0H1l101-248h38L239 0h-34zm-38-99l-47-123c-12 45-31 82-46 123h93" id="bg"/><path fill="#fff" d="M140-251c81 0 123 46 123 126C263-46 219 4 140 4 59 4 17-45 17-125s42-126 123-126zm0 227c63 0 89-41 89-101s-29-99-89-99c-61 0-89 39-89 99S79-25 140-24" id="bh"/><g id="x"><use transform="matrix(0.05,0,0,0.05,0,0)" xlink:href="#bf"/><use transform="matrix(0.05,0,0,0.05,12.950000000000001,0)" xlink:href="#bg"/><use transform="matrix(0.05,0,0,0.05,24.950000000000003,0)" xlink:href="#bh"/></g><path fill="#5f6572" d="M63-220v92h138v28H63V0H30v-248h175v28H63" id="bi"/><path fill="#5f6572" d="M33 0v-248h34V0H33" id="bj"/><path fill="#5f6572" d="M240 0l2-218c-23 76-54 145-80 218h-23L58-218 59 0H30v-248h44l77 211c21-75 51-140 76-211h43V0h-30" id="bk"/><g id="y"><use transform="matrix(0.05,0,0,0.05,0,0)" xlink:href="#bi"/><use transform="matrix(0.05,0,0,0.05,10.950000000000001,0)" xlink:href="#bj"/><use transform="matrix(0.05,0,0,0.05,15.950000000000001,0)" xlink:href="#bk"/></g><path fill="#fff" d="M63-220v92h138v28H63V0H30v-248h175v28H63" id="bl"/><path fill="#fff" d="M233-177c-1 41-23 64-60 70L243 0h-38l-65-103H63V0H30v-248c88 3 205-21 203 71zM63-129c60-2 137 13 137-47 0-61-80-42-137-45v92" id="bm"/><g id="z"><use transform="matrix(0.05,0,0,0.05,0,0)" xlink:href="#bl"/><use transform="matrix(0.05,0,0,0.05,10.950000000000001,0)" xlink:href="#bh"/><use transform="matrix(0.05,0,0,0.05,24.950000000000003,0)" xlink:href="#bm"/></g><use transform="matrix(0.05,0,0,0.05,0,0)" xlink:href="#aU" id="A"/><use transform="matrix(0.05,0,0,0.05,0,0)" xlink:href="#aM" id="B"/><path fill="#5f6572" d="M115-194c55 1 70 41 70 98S169 2 115 4C84 4 66-9 55-30l1 105H24l-1-265h31l2 30c10-21 28-34 59-34zm-8 174c40 0 45-34 45-75s-6-73-45-74c-42 0-51 32-51 76 0 43 10 73 51 73" id="bn"/><path fill="#5f6572" d="M210-169c-67 3-38 105-44 169h-31v-121c0-29-5-50-35-48C34-165 62-65 56 0H25l-1-190h30c1 10-1 24 2 32 10-44 99-50 107 0 11-21 27-35 58-36 85-2 47 119 55 194h-31v-121c0-29-5-49-35-48" id="bo"/><g id="C"><use transform="matrix(0.05,0,0,0.05,0,0)" xlink:href="#bn"/><use transform="matrix(0.05,0,0,0.05,10,0)" xlink:href="#aL"/><use transform="matrix(0.05,0,0,0.05,15.949999999999998,0)" xlink:href="#aH"/><use transform="matrix(0.05,0,0,0.05,19.9,0)" xlink:href="#bo"/><use transform="matrix(0.05,0,0,0.05,34.85,0)" xlink:href="#aQ"/><use transform="matrix(0.05,0,0,0.05,44.85,0)" xlink:href="#aH"/><use transform="matrix(0.05,0,0,0.05,48.800000000000004,0)" xlink:href="#aL"/><use transform="matrix(0.05,0,0,0.05,54.75,0)" xlink:href="#aM"/></g><g id="D"><use transform="matrix(0.05,0,0,0.05,0,0)" xlink:href="#aI"/><use transform="matrix(0.05,0,0,0.05,10,0)" xlink:href="#aK"/><use transform="matrix(0.05,0,0,0.05,20,0)" xlink:href="#aP"/><use transform="matrix(0.05,0,0,0.05,25,0)" xlink:href="#aM"/><use transform="matrix(0.05,0,0,0.05,35,0)" xlink:href="#aV"/></g><path fill="#5f6572" d="M-5 72V49h209v23H-5" id="bp"/><g id="E"><use transform="matrix(0.05,0,0,0.05,0,0)" xlink:href="#aI"/><use transform="matrix(0.05,0,0,0.05,10,0)" xlink:href="#aK"/><use transform="matrix(0.05,0,0,0.05,20,0)" xlink:href="#aP"/><use transform="matrix(0.05,0,0,0.05,25,0)" xlink:href="#aM"/><use transform="matrix(0.05,0,0,0.05,35,0)" xlink:href="#bp"/><use transform="matrix(0.05,0,0,0.05,45,0)" xlink:href="#aS"/><use transform="matrix(0.05,0,0,0.05,55,0)" xlink:href="#bo"/></g><g id="F"><use transform="matrix(0.05,0,0,0.05,0,0)" xlink:href="#aR"/><use transform="matrix(0.05,0,0,0.05,9,0)" xlink:href="#aQ"/><use transform="matrix(0.05,0,0,0.05,19,0)" xlink:href="#aO"/><use transform="matrix(0.05,0,0,0.05,29,0)" xlink:href="#aS"/><use transform="matrix(0.05,0,0,0.05,39,0)" xlink:href="#aI"/><use transform="matrix(0.05,0,0,0.05,49,0)" xlink:href="#aY"/><use transform="matrix(0.05,0,0,0.05,59,0)" xlink:href="#aM"/></g><g id="G"><use transform="matrix(0.05,0,0,0.05,0,0)" xlink:href="#aI"/><use transform="matrix(0.05,0,0,0.05,10,0)" xlink:href="#aK"/><use transform="matrix(0.05,0,0,0.05,20,0)" xlink:href="#aP"/><use transform="matrix(0.05,0,0,0.05,25,0)" xlink:href="#aM"/><use transform="matrix(0.05,0,0,0.05,35,0)" xlink:href="#bp"/><use transform="matrix(0.05,0,0,0.05,45,0)" xlink:href="#aY"/><use transform="matrix(0.05,0,0,0.05,55,0)" xlink:href="#aK"/><use transform="matrix(0.05,0,0,0.05,65,0)" xlink:href="#aH"/><use transform="matrix(0.05,0,0,0.05,68.95,0)" xlink:href="#aR"/></g><g id="H"><use transform="matrix(0.05,0,0,0.05,0,0)" xlink:href="#aP"/><use transform="matrix(0.05,0,0,0.05,5,0)" xlink:href="#aQ"/><use transform="matrix(0.05,0,0,0.05,15,0)" xlink:href="#aL"/><use transform="matrix(0.05,0,0,0.05,20.95,0)" xlink:href="#aJ"/><use transform="matrix(0.05,0,0,0.05,29.950000000000003,0)" xlink:href="#aQ"/><use transform="matrix(0.05,0,0,0.05,39.95,0)" xlink:href="#aH"/><use transform="matrix(0.05,0,0,0.05,43.900000000000006,0)" xlink:href="#aL"/><use transform="matrix(0.05,0,0,0.05,49.85000000000001,0)" xlink:href="#aM"/></g><g id="I"><use transform="matrix(0.05,0,0,0.05,0,0)" xlink:href="#aI"/><use transform="matrix(0.05,0,0,0.05,10,0)" xlink:href="#aK"/><use transform="matrix(0.05,0,0,0.05,20,0)" xlink:href="#aP"/><use transform="matrix(0.05,0,0,0.05,25,0)" xlink:href="#aM"/><use transform="matrix(0.05,0,0,0.05,35,0)" xlink:href="#bp"/><use transform="matrix(0.05,0,0,0.05,45,0)" xlink:href="#aP"/><use transform="matrix(0.05,0,0,0.05,50,0)" xlink:href="#aL"/><use transform="matrix(0.05,0,0,0.05,55.95,0)" xlink:href="#aQ"/><use transform="matrix(0.05,0,0,0.05,65.95,0)" xlink:href="#aR"/></g><path fill="#5f6572" d="M24 0v-261h32V0H24" id="bq"/><g id="J"><use transform="matrix(0.05,0,0,0.05,0,0)" xlink:href="#aL"/><use transform="matrix(0.05,0,0,0.05,5.95,0)" xlink:href="#aQ"/><use transform="matrix(0.05,0,0,0.05,15.949999999999998,0)" xlink:href="#aR"/><use transform="matrix(0.05,0,0,0.05,24.95,0)" xlink:href="#aS"/><use transform="matrix(0.05,0,0,0.05,34.95,0)" xlink:href="#bq"/><use transform="matrix(0.05,0,0,0.05,38.900000000000006,0)" xlink:href="#aP"/></g><path fill="#5f6572" d="M87 75C49 33 22-17 22-94c0-76 28-126 65-167h31c-38 41-64 92-64 168S80 34 118 75H87" id="br"/><g id="K"><use transform="matrix(0.05,0,0,0.05,0,0)" xlink:href="#br"/><use transform="matrix(0.05,0,0,0.05,5.95,0)" xlink:href="#aI"/><use transform="matrix(0.05,0,0,0.05,15.949999999999998,0)" xlink:href="#aK"/><use transform="matrix(0.05,0,0,0.05,25.950000000000003,0)" xlink:href="#aP"/><use transform="matrix(0.05,0,0,0.05,30.950000000000003,0)" xlink:href="#aM"/><use transform="matrix(0.05,0,0,0.05,40.95,0)" xlink:href="#bp"/><use transform="matrix(0.05,0,0,0.05,50.95,0)" xlink:href="#aS"/><use transform="matrix(0.05,0,0,0.05,60.95,0)" xlink:href="#bo"/></g><path fill="#5f6572" d="M118-107v75H92v-75H18v-26h74v-75h26v75h74v26h-74" id="bs"/><use transform="matrix(0.05,0,0,0.05,0,0)" xlink:href="#bs" id="L"/><g id="M"><use transform="matrix(0.05,0,0,0.05,0,0)" xlink:href="#aI"/><use transform="matrix(0.05,0,0,0.05,10,0)" xlink:href="#aK"/><use transform="matrix(0.05,0,0,0.05,20,0)" xlink:href="#aP"/><use transform="matrix(0.05,0,0,0.05,25,0)" xlink:href="#aM"/><use transform="matrix(0.05,0,0,0.05,35,0)" xlink:href="#bp"/><use transform="matrix(0.05,0,0,0.05,45,0)" xlink:href="#aY"/><use transform="matrix(0.05,0,0,0.05,55,0)" xlink:href="#aK"/><use transform="matrix(0.05,0,0,0.05,65,0)" xlink:href="#aH"/><use transform="matrix(0.05,0,0,0.05,68.95,0)" xlink:href="#aR"/></g><path fill="#5f6572" d="M33-261c38 41 65 92 65 168S71 34 33 75H2C39 34 66-17 66-93S39-220 2-261h31" id="bt"/><g id="N"><use transform="matrix(0.05,0,0,0.05,0,0)" xlink:href="#aI"/><use transform="matrix(0.05,0,0,0.05,10,0)" xlink:href="#aK"/><use transform="matrix(0.05,0,0,0.05,20,0)" xlink:href="#aP"/><use transform="matrix(0.05,0,0,0.05,25,0)" xlink:href="#aM"/><use transform="matrix(0.05,0,0,0.05,35,0)" xlink:href="#bp"/><use transform="matrix(0.05,0,0,0.05,45,0)" xlink:href="#aP"/><use transform="matrix(0.05,0,0,0.05,50,0)" xlink:href="#aL"/><use transform="matrix(0.05,0,0,0.05,55.95,0)" xlink:href="#aQ"/><use transform="matrix(0.05,0,0,0.05,65.95,0)" xlink:href="#aR"/><use transform="matrix(0.05,0,0,0.05,74.95,0)" xlink:href="#bt"/></g><path fill="#5f6572" d="M0 4l72-265h28L28 4H0" id="bu"/><use transform="matrix(0.05,0,0,0.05,0,0)" xlink:href="#bu" id="O"/><path fill="#5f6572" d="M126-127c33 6 58 20 58 59 0 88-139 92-164 29-3-8-5-16-6-25l32-3c6 27 21 44 54 44 32 0 52-15 52-46 0-38-36-46-79-43v-28c39 1 72-4 72-42 0-27-17-43-46-43-28 0-47 15-49 41l-32-3c6-42 35-63 81-64 48-1 79 21 79 65 0 36-21 52-52 59" id="bv"/><path fill="#5f6572" d="M68-36c1 33-1 63-14 82H32c9-13 17-26 17-46H33v-36h35zM33-154v-36h35v36H33" id="bw"/><g id="P"><use transform="matrix(0.05,0,0,0.05,0,0)" xlink:href="#bv"/><use transform="matrix(0.05,0,0,0.05,10,0)" xlink:href="#bw"/></g><path fill="#5f6572" d="M18-27v-27l151-64-151-65v-27l175 74v36" id="bx"/><g id="Q"><use transform="matrix(0.05,0,0,0.05,0,0)" xlink:href="#bx"/><use transform="matrix(0.05,0,0,0.05,10.5,0)" xlink:href="#ba"/></g><path fill="#5f6572" d="M134-131c28 9 52 24 51 62-1 50-34 73-85 73S17-19 16-69c0-36 21-54 49-61-75-25-45-126 34-121 46 3 78 18 79 63 0 33-17 51-44 57zm-34-11c31 1 46-15 46-44 0-28-17-43-47-42-29 0-46 13-45 42 1 28 16 44 46 44zm1 122c35 0 51-18 51-52 0-30-18-46-53-46-33 0-51 17-51 47 0 34 19 51 53 51" id="by"/><use transform="matrix(0.05,0,0,0.05,0,0)" xlink:href="#by" id="R"/><path fill="#5f6572" d="M30-248c87 1 191-15 191 75 0 78-77 80-158 76V0H30v-248zm33 125c57 0 124 11 124-50 0-59-68-47-124-48v98" id="bz"/><path fill="#5f6572" d="M140-251c81 0 123 46 123 126C263-46 219 4 140 4 59 4 17-45 17-125s42-126 123-126zm0 227c63 0 89-41 89-101s-29-99-89-99c-61 0-89 39-89 99S79-25 140-24" id="bA"/><path fill="#5f6572" d="M137 0h-34L2-248h35l83 218 83-218h36" id="bB"/><path fill="#5f6572" d="M63-70H37l-4-178h34zM33 0v-35h34V0H33" id="bC"/><g id="S"><use transform="matrix(0.05,0,0,0.05,0,0)" xlink:href="#aU"/><use transform="matrix(0.05,0,0,0.05,12,0)" xlink:href="#bz"/><use transform="matrix(0.05,0,0,0.05,24,0)" xlink:href="#aT"/><use transform="matrix(0.05,0,0,0.05,36.95,0)" xlink:href="#bA"/><use transform="matrix(0.05,0,0,0.05,50.95,0)" xlink:href="#bB"/><use transform="matrix(0.05,0,0,0.05,61.6,0)" xlink:href="#aU"/><use transform="matrix(0.05,0,0,0.05,73.6,0)" xlink:href="#aN"/><use transform="matrix(0.05,0,0,0.05,86.55,0)" xlink:href="#bA"/><use transform="matrix(0.05,0,0,0.05,100.55,0)" xlink:href="#bC"/></g><path fill="#5f6572" d="M110-160c48 1 74 30 74 79 0 53-28 85-80 85-65 0-83-55-86-122-5-90 50-162 133-122 14 7 22 21 27 39l-31 6c-5-40-67-38-82-6-9 19-15 44-15 74 11-20 30-34 60-33zm-7 138c34 0 49-23 49-58s-16-56-50-56c-29 0-50 16-49 49 1 36 15 65 50 65" id="bD"/><use transform="matrix(0.05,0,0,0.05,0,0)" xlink:href="#bD" id="T"/><use transform="matrix(0.05,0,0,0.05,0,0)" xlink:href="#aQ" id="U"/><g id="V"><use transform="matrix(0.05,0,0,0.05,0,0)" xlink:href="#aL"/><use transform="matrix(0.05,0,0,0.05,5.95,0)" xlink:href="#aQ"/><use transform="matrix(0.05,0,0,0.05,15.949999999999998,0)" xlink:href="#aR"/><use transform="matrix(0.05,0,0,0.05,24.95,0)" xlink:href="#aS"/><use transform="matrix(0.05,0,0,0.05,34.95,0)" xlink:href="#bq"/><use transform="matrix(0.05,0,0,0.05,38.900000000000006,0)" xlink:href="#aP"/></g><path fill="#5f6572" d="M18-100v-36l175-74v27L42-118l151 64v27" id="bE"/><use transform="matrix(0.05,0,0,0.05,0,0)" xlink:href="#bE" id="W"/><use transform="matrix(0.05,0,0,0.05,0,0)" xlink:href="#by" id="X"/><path fill="#5f6572" d="M30 0v-248h187v28H63v79h144v27H63v87h162V0H30" id="bF"/><path fill="#5f6572" d="M212-179c-10-28-35-45-73-45-59 0-87 40-87 99 0 60 29 101 89 101 43 0 62-24 78-52l27 14C228-24 195 4 139 4 59 4 22-46 18-125c-6-104 99-153 187-111 19 9 31 26 39 46" id="bG"/><path fill="#5f6572" d="M232-93c-1 65-40 97-104 97C67 4 28-28 28-90v-158h33c8 89-33 224 67 224 102 0 64-133 71-224h33v155" id="bH"/><path fill="#5f6572" d="M212-179c-10-28-35-45-73-45-59 0-87 40-87 99 0 60 29 101 89 101 43 0 62-24 78-52l27 14C228-24 195 4 139 4 59 4 22-46 18-125c-6-104 99-153 187-111 19 9 31 26 39 46zM142 18c19-1 33 8 33 26 0 31-30 33-64 32V58c18 2 39 4 41-13 1-15-18-13-34-13l12-32h19" id="bI"/><path fill="#5f6572" d="M184-316c-4 23-8 48-36 47s-64-43-75 0H57c4-23 8-48 36-47s64 44 74 0h17zM205 0l-28-72H64L36 0H1l101-248h38L239 0h-34zm-38-99l-47-123c-12 45-31 82-46 123h93" id="bJ"/><g id="Y"><use transform="matrix(0.05,0,0,0.05,0,0)" xlink:href="#aT"/><use transform="matrix(0.05,0,0,0.05,12.950000000000001,0)" xlink:href="#bF"/><use transform="matrix(0.05,0,0,0.05,24.950000000000003,0)" xlink:href="#bG"/><use transform="matrix(0.05,0,0,0.05,37.900000000000006,0)" xlink:href="#bH"/><use transform="matrix(0.05,0,0,0.05,50.85000000000001,0)" xlink:href="#bz"/><use transform="matrix(0.05,0,0,0.05,62.85,0)" xlink:href="#bF"/><use transform="matrix(0.05,0,0,0.05,74.85000000000001,0)" xlink:href="#aT"/><use transform="matrix(0.05,0,0,0.05,87.80000000000001,0)" xlink:href="#aU"/><use transform="matrix(0.05,0,0,0.05,99.80000000000001,0)" xlink:href="#bI"/><use transform="matrix(0.05,0,0,0.05,112.75,0)" xlink:href="#bJ"/><use transform="matrix(0.05,0,0,0.05,124.75,0)" xlink:href="#bA"/><use transform="matrix(0.05,0,0,0.05,138.75,0)" xlink:href="#bC"/></g><g id="Z"><use transform="matrix(0.05,0,0,0.05,0,0)" xlink:href="#aT"/><use transform="matrix(0.05,0,0,0.05,12.950000000000001,0)" xlink:href="#bF"/><use transform="matrix(0.05,0,0,0.05,24.950000000000003,0)" xlink:href="#bz"/><use transform="matrix(0.05,0,0,0.05,36.95,0)" xlink:href="#aT"/><use transform="matrix(0.05,0,0,0.05,49.900000000000006,0)" xlink:href="#bA"/><use transform="matrix(0.05,0,0,0.05,63.900000000000006,0)" xlink:href="#bB"/><use transform="matrix(0.05,0,0,0.05,74.55000000000001,0)" xlink:href="#aU"/><use transform="matrix(0.05,0,0,0.05,86.55000000000001,0)" xlink:href="#aN"/><use transform="matrix(0.05,0,0,0.05,99.50000000000001,0)" xlink:href="#bA"/><use transform="matrix(0.05,0,0,0.05,113.5,0)" xlink:href="#bC"/></g><g id="aa"><use transform="matrix(0.05,0,0,0.05,0,0)" xlink:href="#aT"/><use transform="matrix(0.05,0,0,0.05,12.950000000000001,0)" xlink:href="#aU"/></g><path fill="#5f6572" d="M190 0L58-211 59 0H30v-248h39L202-35l-2-213h31V0h-41" id="bK"/><path fill="#5f6572" d="M30 0v-248h33v221h125V0H30" id="bL"/><g id="ab"><use transform="matrix(0.05,0,0,0.05,0,0)" xlink:href="#bj"/><use transform="matrix(0.05,0,0,0.05,5,0)" xlink:href="#bK"/><use transform="matrix(0.05,0,0,0.05,17.950000000000003,0)" xlink:href="#bB"/><use transform="matrix(0.05,0,0,0.05,28.6,0)" xlink:href="#aU"/><use transform="matrix(0.05,0,0,0.05,40.6,0)" xlink:href="#bL"/><use transform="matrix(0.05,0,0,0.05,50.6,0)" xlink:href="#bj"/><use transform="matrix(0.05,0,0,0.05,55.6,0)" xlink:href="#aN"/><use transform="matrix(0.05,0,0,0.05,68.55,0)" xlink:href="#bA"/></g></defs></g></svg>